<?xml version="1.0" encoding="UTF-8"?>
<svg id="Layer_2" data-name="Layer 2" xmlns="http://www.w3.org/2000/svg" viewBox="0 0 129.14 87.96">
  <defs>
    <style>
      .cls-1 {
        fill: #30c6fd;
      }
    </style>
  </defs>
  <g id="dsgn">
    <g>
      <path class="cls-1" d="M34.91,39.76v30.67c0,.55.3,1.07.77,1.34l27.31,15.77c.98.56,2.18.56,3.16,0l27.31-15.77c.48-.28.77-.79.77-1.34v-30.67c0-1.19-1.29-1.94-2.32-1.34l-25.76,14.87c-.98.56-2.18.56-3.16,0l-25.76-14.87c-1.03-.6-2.32.15-2.32,1.34Z"/>
      <path class="cls-1" d="M28.89.24L1.58,16c-.98.56-1.58,1.61-1.58,2.73v31.53c0,.55.3,1.07.77,1.34l26.56,15.34c1.03.6,2.32-.15,2.32-1.34v-29.74c0-1.13.6-2.17,1.58-2.73l25.76-14.87c1.03-.6,1.03-2.09,0-2.68L30.44.24c-.48-.28-1.07-.28-1.55,0Z"/>
      <path class="cls-1" d="M100.25.21l27.31,15.76c.98.56,1.58,1.61,1.58,2.73v31.53c0,.55-.3,1.07-.77,1.34l-26.56,15.34c-1.03.6-2.32-.15-2.32-1.34v-29.74c0-1.13-.6-2.17-1.58-2.73l-25.76-14.87c-1.03-.6-1.03-2.09,0-2.68L98.7.21c.48-.28,1.07-.28,1.55,0Z"/>
    </g>
  </g>
</svg>